<?xml version="1.0" encoding="utf-8"?>
<!-- Generator: Adobe Illustrator 23.0.3, SVG Export Plug-In . SVG Version: 6.00 Build 0)  -->
<svg version="1.1" id="logosvg.com" xmlns="http://www.w3.org/2000/svg" xmlns:xlink="http://www.w3.org/1999/xlink" x="0px"
	 y="0px" viewBox="0 0 400 300" style="enable-background:new 0 0 400 300;" xml:space="preserve">
<style type="text/css">
	.st0{fill:#4C4C4C;}
	.st1{fill:#2BB673;}
	.st2{fill:#FFFFFF;}
</style>
<path id="text" className="st0" d="M132.6,169.2c-1.2-0.5-2.1-1.5-2.1-2.9c0-1.7,1.4-3,3-3c0.5,0,0.9,0.1,1.2,0.3c2.1,1,4.4,1.6,7.2,1.6
	c5.1,0,7.5-2.5,7.5-7.1v-1.2c-2.2,2.6-4.6,4.2-8.5,4.2c-6.1,0-11.6-4.4-11.6-12.2v-0.1c0-7.8,5.6-12.2,11.6-12.2
	c4.1,0,6.4,1.7,8.5,3.9v-0.2c0-2,1.7-3.7,3.7-3.7c2,0,3.7,1.7,3.7,3.7v16.8c0,4.7-1.1,8.1-3.3,10.3c-2.5,2.5-6.2,3.5-11.3,3.5
	C138.7,171.1,135.7,170.4,132.6,169.2z M149.4,148.8L149.4,148.8c0-3.6-2.8-6.2-6.4-6.2s-6.3,2.5-6.3,6.1v0.1c0,3.6,2.7,6.1,6.3,6.1
	C146.6,154.8,149.4,152.3,149.4,148.8z M160.9,140.4c0-2,1.7-3.7,3.7-3.7c2,0,3.7,1.7,3.7,3.7v1.1c1.1-2.6,2.8-4.8,5-4.8
	c2.3,0,3.6,1.5,3.6,3.6c0,1.9-1.2,3.1-2.8,3.4c-3.8,0.9-5.8,3.8-5.8,9v7c0,2-1.7,3.7-3.7,3.7c-2,0-3.7-1.7-3.7-3.7
	C160.9,159.7,160.9,140.4,160.9,140.4z M176.1,155.5L176.1,155.5c0-5.8,4.3-8.5,10.6-8.5c2.6,0,4.6,0.4,6.4,1.1v-0.4
	c0-3.1-1.9-4.8-5.6-4.8c-2,0-3.7,0.3-5.1,0.7c-0.4,0.2-0.7,0.2-1.1,0.2c-1.7,0-3.1-1.3-3.1-3c0-1.3,0.8-2.5,2-2.9
	c2.4-0.9,4.8-1.4,8.4-1.4c4.1,0,7,1.1,8.8,2.9c1.9,1.9,2.8,4.8,2.8,8.4v11.9c0,2-1.6,3.5-3.6,3.5c-2.1,0-3.5-1.5-3.5-3.1V160
	c-1.8,2-4.3,3.3-7.9,3.3C180.2,163.6,176.1,160.7,176.1,155.5z M193.1,153.9v-1.3c-1.2-0.6-2.9-1-4.8-1c-3.2,0-5.1,1.2-5.1,3.6v0.1
	c0,2,1.7,3.2,4.1,3.2C190.8,158.5,193.1,156.6,193.1,153.9L193.1,153.9z M204.1,140.4c0-2,1.7-3.7,3.7-3.7c2,0,3.7,1.7,3.7,3.7v0.3
	c1.7-2.2,4-4.2,7.8-4.2c3.4,0,6,1.5,7.4,4.1c2.3-2.6,5-4.1,8.5-4.1c5.5,0,8.8,3.3,8.8,9.6v13.7c0,2-1.7,3.7-3.7,3.7
	c-2,0-3.7-1.7-3.7-3.7v-11.2c0-3.5-1.6-5.3-4.3-5.3c-2.8,0-4.5,1.8-4.5,5.3v11.2c0,2-1.7,3.7-3.7,3.7s-3.7-1.7-3.7-3.7v-11.2
	c0-3.5-1.6-5.3-4.3-5.3c-2.8,0-4.5,1.8-4.5,5.3v11.2c0,2-1.7,3.7-3.7,3.7s-3.7-1.7-3.7-3.7L204.1,140.4L204.1,140.4z M248,140.4
	c0-2,1.7-3.7,3.7-3.7s3.7,1.7,3.7,3.7v0.3c1.7-2.2,4-4.2,7.8-4.2c3.4,0,6,1.5,7.4,4.1c2.3-2.6,5-4.1,8.5-4.1c5.5,0,8.8,3.3,8.8,9.6
	v13.7c0,2-1.7,3.7-3.7,3.7c-2,0-3.7-1.7-3.7-3.7v-11.2c0-3.5-1.6-5.3-4.3-5.3c-2.8,0-4.5,1.8-4.5,5.3v11.2c0,2-1.7,3.7-3.7,3.7
	c-2,0-3.7-1.7-3.7-3.7v-11.2c0-3.5-1.6-5.3-4.3-5.3c-2.8,0-4.5,1.8-4.5,5.3v11.2c0,2-1.7,3.7-3.7,3.7s-3.7-1.7-3.7-3.7L248,140.4
	L248,140.4z M290.4,155.5L290.4,155.5c0-5.8,4.3-8.5,10.6-8.5c2.6,0,4.6,0.4,6.4,1.1v-0.4c0-3.1-1.9-4.8-5.6-4.8
	c-2,0-3.7,0.3-5.1,0.7c-0.4,0.2-0.7,0.2-1.1,0.2c-1.7,0-3.1-1.3-3.1-3c0-1.3,0.8-2.5,2-2.9c2.4-0.9,4.8-1.4,8.4-1.4
	c4.1,0,7,1.1,8.8,2.9c1.9,1.9,2.8,4.8,2.8,8.4v11.9c0,2-1.6,3.5-3.6,3.5c-2.1,0-3.5-1.5-3.5-3.1V160c-1.8,2-4.3,3.3-7.9,3.3
	C294.4,163.6,290.4,160.7,290.4,155.5z M307.4,153.9v-1.3c-1.2-0.6-2.9-1-4.8-1c-3.2,0-5.1,1.2-5.1,3.6v0.1c0,2,1.7,3.2,4.1,3.2
	C305.1,158.5,307.4,156.6,307.4,153.9L307.4,153.9z M318.4,140.4c0-2,1.7-3.7,3.7-3.7s3.7,1.7,3.7,3.7v1.1c1.1-2.6,2.8-4.8,5-4.8
	c2.3,0,3.6,1.5,3.6,3.6c0,1.9-1.2,3.1-2.8,3.4c-3.8,0.9-5.8,3.8-5.8,9v7c0,2-1.7,3.7-3.7,3.7c-2,0-3.7-1.7-3.7-3.7V140.4z
	 M336.7,130.9c0-2,1.7-3.7,3.7-3.7c2,0,3.7,1.7,3.7,3.7v28.8c0,2-1.7,3.7-3.7,3.7s-3.7-1.7-3.7-3.7V130.9z M350,170.3
	c-1.1-0.4-2.4-1.2-2.4-3.1c0-1.8,1.4-3,2.9-3c0.6,0,1,0.1,1.2,0.2c0.6,0.2,1.1,0.3,1.6,0.3c1.3,0,1.9-0.3,2.6-1.6l0.3-0.6l-8.9-20.7
	c-0.2-0.5-0.4-1.2-0.4-1.7c0-2.1,1.6-3.5,3.7-3.5c1.8,0,2.9,1.1,3.5,2.8l5.6,15.2l5.5-15.2c0.6-1.6,1.7-2.8,3.5-2.8
	c1.9,0,3.5,1.5,3.5,3.4c0,0.6-0.2,1.4-0.4,1.8l-9.2,21.9c-2.2,5.3-4.4,7.3-8.8,7.3C352.4,171.1,351.3,170.8,350,170.3L350,170.3z"/>
<circle id="green" className="st1" cx="68.2" cy="150" r="40.5"/>
<path id="white" className="st2" d="M76.2,155.5c-1.7,0-3,1.5-2.7,3.3c0.3,1.3,1.5,2.2,2.8,2.2h4.2l2.5-0.4c-4,5.8-10.7,8.5-18.2,7.2
	c-6.1-1-11.3-5.1-13.5-10.8c-5-13,4.5-25.5,16.9-25.5c6.4,0,12.2,3.8,15.4,8.4v0.1c0.9,1.2,2.6,1.6,3.8,0.7c1.1-0.8,1.5-2.4,0.8-3.6
	c-4.5-7-12.6-11.5-21.7-10.9c-11.8,1-21.4,10.7-22.1,22.6c-0.8,13.8,10.1,25,23.8,25c7.1,0,13.6-3.1,17.9-8.2l-0.5,2.9v2.6
	c0,1.3,0.9,2.6,2.2,2.8c1.8,0.4,3.3-1.1,3.3-2.7v-15.6H76.2z"/>
</svg>
