<?xml version="1.0"?>
<svg viewBox="0 0 1260 456" xmlns="http://www.w3.org/2000/svg">
<path d="m0 0h1260v456h-1260z" fill="#fff"/>
<path d="m180.16 345.94h899.28v-72.66h-899.28z" fill="#fe0"/>
<path d="m260.21 112.57-29.58 45.94h-12.27v-45.94h-38.2v122.51h38.2v-47.86h11.75l29.76 47.86h46.55l-42.29-64.56 40.03-58.04h-43.94m156.26 26.02h28.45v-26.02h-28.45zm-106.59 0h28.45v-26.02h-28.45zm81.1 47.59h-28.11l10.27-32.02 3.74-12.7h0.52l3.57 12.7zm58.12 48.99-49.68-122.51h-44.29l-48.73 122.51h40.72l6.53-20.62h46.03l6.35 20.62h42.98m580.64-80.49c0 11.57-4.61 14.53-15.84 14.53h-16.01v-27.93h16.18c11.75 0 15.66 3.13 15.66 13.4zm40.03-1.48c0-27.32-19.14-40.55-55.08-40.55h-55.08v122.51h38.2v-40.37h15.84l20.71 40.37h45.07l-31.32-47.68c13.75-4.87 21.58-18.45 21.58-34.28m-386.43-37.76c-8.79-2.96-21.41-5.05-32.98-5.05-47.07 0-67.96 24.36-67.96 63.08 0 41.85 22.19 64.04 64.65 64.04 12.62 0 26.28-2.96 36.63-7.57l-4.09-28.11c-7.83 3.13-17.32 5.05-27.5 5.05-23.32 0-29.41-8.01-29.41-33.33 0-24.02 5.57-32.02 29.06-32.02 10.96 0 20.1 1.65 27.76 3.74l3.74-29.93m134.88 119.83v-122.51h-38.11v45.25h-40.64v-45.25h-38.2v122.51h38.2v-46.03h40.64v46.03zm61.26-30.19v-18.62h49.86v-26.8h-49.86v-16.36h60.3l-0.7-30.54h-97.89v122.51h100.33l0.7-30.19zm-348.05-50.3c0 11.57-4.61 14.53-15.84 14.53h-16.01v-27.93h16.18c11.75 0 15.66 3.13 15.66 13.4zm40.11-1.48c0-27.32-19.14-40.55-55.08-40.55h-55.08v122.51h38.2v-40.37h15.84l20.71 40.37h45.07l-31.32-47.68c13.75-4.87 21.58-18.45 21.58-34.28"/>
</svg>
