<?xml version="1.0" encoding="utf-8"?>
<!-- Generator: Adobe Illustrator 23.0.3, SVG Export Plug-In . SVG Version: 6.00 Build 0)  -->
<svg version="1.1" id="logosvg.com" xmlns="http://www.w3.org/2000/svg" xmlns:xlink="http://www.w3.org/1999/xlink" x="0px"
	 y="0px" viewBox="0 0 400 300" style="enable-background:new 0 0 400 300;" xml:space="preserve">
<style type="text/css">
	.st0{fill:#0B2A4A;}
	.st1{fill:#C3D600;}
	.st2{fill:#00A1E1;}
</style>
<path id="blue_1_" className="st0" d="M66,97.7L18.6,121v41.7l47.4,0V97.7z"/>
<path id="green" className="st1" d="M79.5,202.3l49-25.7l-62.5-14l-47.2,0L18.6,188L79.5,202.3z"/>
<path id="blue" className="st2" d="M18.6,152.5V188L66,162.6L18.6,152.5z"/>
<path id="text" d="M195.9,118.4V109h-44.5v44.1h44.5v-10.2h-32.7v-7.8h32.7v-9h-32.7v-7.8H195.9z M320.1,153.1V109h-49v44.1H320.1z
	 M308.3,119.6v23.3h-25.7v-23.3L308.3,119.6z M241.7,131l20-22.1h-15.1l-13.1,15.1L220.4,109h-15.1l20.4,22.1l-20.4,22.1h15.1
	l13.1-15.1l13.1,15.1h15.1L241.7,131z M138.3,109h-11.8v24.1l-36.4-25.3v45.3h11.4V129l36.8,25.3V109z M333.2,153.1h11.4v-24.5
	l36.8,25.7V109h-11.4v24.1l-36.8-25.3V153.1z"/>
</svg>
