<?xml version="1.0" encoding="utf-8"?>
<!-- Generator: Adobe Illustrator 23.0.3, SVG Export Plug-In . SVG Version: 6.00 Build 0)  -->
<svg version="1.1" id="logosvg.com" xmlns="http://www.w3.org/2000/svg" xmlns:xlink="http://www.w3.org/1999/xlink" x="0px"
	 y="0px" viewBox="0 0 400 300" style="enable-background:new 0 0 400 300;" xml:space="preserve">
<path id="logo" d="M360.595,170.888c3.94,0.04,9.425-0.674,12.374-1.202c-2.096,2.944-4.678,5.519-7.627,7.608
	c-2.915,0.028-8.939-0.26-19.75-2.097c-13.006-2.21-20.008-2.507-22.492-2.529c-0.701-0.772-1.365-1.578-1.989-2.416
	c1.857-0.246,6.696-0.793,12.66-0.732C341.439,169.598,355.447,170.836,360.595,170.888z M323.736,173.345
	c5.832,6.058,14.025,9.829,23.098,9.829c6.264,0,12.107-1.798,17.044-4.904c-3.225-0.078-9.046-0.534-18.635-2.243
	C333.653,173.962,326.835,173.459,323.736,173.345z M378.894,151.115c0,6.384-1.866,12.331-5.083,17.328
	c-2.609,0.555-8.852,1.497-13.212,1.497c-5.148,0-19.169-1.096-26.836-1.096c-6.4,0-11.5,0.686-13.011,0.914
	c-3.762-5.253-5.977-11.69-5.977-18.643c0-4.273,0.838-8.35,2.356-12.078l6.775-0.492l-3.99-4.845
	c0.669-1.031,1.394-2.023,2.173-2.968l6.426,7.479l1.991-0.145l-7.151-8.775c1.068-1.148,2.219-2.219,3.444-3.2l5.921,1.699
	l0.19-5.559c1.265-0.611,2.577-1.139,3.927-1.582l4.155,6.897l4.007-8.437c0.305-0.017,0.611-0.031,0.918-0.039l5.226,10.05
	l1.033-0.934l-3.531-9.078c0.979,0.055,1.947,0.153,2.901,0.294l3.325,6.589l6.467-3.473c0.697,0.354,1.378,0.733,2.044,1.134
	l-6.105,5.176l-0.312,1.313l1.875,3.717l6.439-8.966c0.695,0.491,1.371,1.007,2.024,1.549l-3.153,5.017h8.01
	c0.705,0.906,1.361,1.852,1.967,2.832l-6.93,0.485l-2.682,5.071c2.945-0.393,6.653-1.346,10.823-3.418
	c0.454,0.88,0.868,1.784,1.241,2.709c-4.861,2.626-10.044,3.926-14.102,4.563l-1.847,3.493l17.176-4.384
	C378.514,145.458,378.894,148.242,378.894,151.115z M358.788,139.985c0.47,0.048,1.053,0.089,1.741,0.101l3.044-5.058l-1.746,0.122
	L358.788,139.985z M356.075,144.301l-3.034,4.827l2.416-0.617l2.593-4.307C357.241,144.261,356.572,144.288,356.075,144.301z
	 M350.487,138.668l0.217,6.516l5.242-7.3l-0.922-2.373L350.487,138.668z M339.061,140.868l2.297,2.272l-0.813-5.692L339.061,140.868
	z M335.808,126.491l0.134,2.481l1.375,0.172L335.808,126.491z M336.115,132.179l0.277,5.12l2.482-4.235L336.115,132.179z
	 M332.525,134.401l-0.241-3.45l-4.801-1.539L332.525,134.401z M326.373,144.427l4.323,1.635l4.527-3.652l-1.61-1.368l-4.637,0.153
	L326.373,144.427z M318.72,141.534l3.94,1.49l1.232-1.661L318.72,141.534z M318.594,148.504l2.262-3.05l-1.636-0.783
	C318.928,145.92,318.717,147.199,318.594,148.504z M344.407,151.883l-1.517-1.693l-4.084,1.57l-6.578-0.257l7.898-4.399
	l-1.982-2.212l-7.843,6.535l-4.136-0.161l1.756-2.432l-3.68-1.762l-3.184,3.952h-1.059l-1.53-0.06
	c-0.001,0.079-0.005,0.158-0.005,0.237c0,3.739,0.723,7.309,2.033,10.58c7.789,0.225,15.645,1.323,23.523,2.483L344.407,151.883z
	 M347.033,143.663l-0.058-3.076l-1.884,0.845l0.503,2.147L347.033,143.663z M348.163,130.577l-2.424-5.109l-2.776,6.402l1.548,6.082
	l2.703-1.966L348.163,130.577z M376.205,151.204c0-1.592-0.129-3.154-0.374-4.677l-3.518,0.875c0.604,1.992,2.635,4.5,2.635,4.5
	l-2.191,1.023c-1.944-1.029-3.798-3.49-4.512-4.51l-4.101,1.02l0.726,2.906l-2.775,0.146l-1.486-2.171l-10.49,2.61
	c0,0-0.69,6.223,0.752,12.344c6.85,0.977,13.708,1.818,20.543,1.988C374.443,162.648,376.205,157.132,376.205,151.204z
	 M169.021,170.451c0,3.798-1.46,9.785-10.954,9.785c-9.492,0-14.75-8.471-14.75-19.571c0-11.099,3.651-21.322,13.145-21.322
	c9.493,0,11.975,12.268,11.975,13.874c0,1.607-0.145,3.652-1.314,4.235c-1.169,0.584-11.246,4.527-11.246,4.527
	c-2.11,0.469-2.15,2.254-2.084,2.941c2.333,5.729,5.658,5.53,6.757,5.53c1.46,0,2.921,0.146,2.921-2.921
	C163.471,165.047,169.021,166.069,169.021,170.451z M153.54,157.891c1.607,0,4.966-1.169,4.966-5.112s-2.922-8.032-4.236-8.032
	c-1.315,0-3.797,1.241-2.337,12.413C152.019,157.813,152.88,157.891,153.54,157.891z M65.181,176.147
	c-1.46-0.877-1.753-1.899-1.753-2.921c0,0,0-27.457,0-30.086s-1.168-3.505-1.898-3.505c-1.753,0-9.931,3.505-11.83,4.528
	c-1.898,1.022-0.438,2.337,0.438,2.775c0.877,0.438,1.607,0.876,1.607,3.213s0,22.053,0,23.075c0,1.023-0.292,2.045-1.753,2.921
	c-0.307,0.184-0.49,0.425-0.574,0.691c-0.128-0.323-0.402-0.655-0.849-0.983c-2.191-1.606-1.898-2.337-1.898-4.235
	c0-1.899,0-39.287,0-41.477s-0.147-3.943,1.022-3.943c2.921,0,4.527,5.549,6.134,9.347c1.606,3.797,6.864,1.752,6.28-0.877
	c-0.584-2.628-1.753-10.077-2.337-12.706c-0.584-2.629-1.606-4.381-2.629-4.381c-1.022,0-2.775,1.606-2.775,1.606l-12.359,0.22
	l-12.359-0.22c0,0-1.753-1.606-2.775-1.606c-1.023,0-2.045,1.752-2.629,4.381s-1.753,10.078-2.337,12.706
	c-0.584,2.629,4.673,4.674,6.28,0.877c1.606-3.798,3.213-9.347,6.134-9.347c1.169,0,1.023,1.752,1.023,3.943s0,39.579,0,41.477
	c0,1.899,0.292,2.629-1.899,4.235s-0.292,3.33,3.213,3.33h10.698c2.169,0,3.721-0.66,4.072-1.543
	c0.237,0.794,1.081,1.543,2.026,1.543h12.268C65.327,179.184,66.642,177.023,65.181,176.147z M208.755,176.147
	c-1.461-0.877-1.753-1.899-1.753-2.921c0,0,0-47.15,0-49.779s-1.169-3.505-1.899-3.505c-1.752,0-9.931,3.505-11.829,4.527
	c-1.898,1.023-0.438,2.337,0.438,2.775s1.606,0.876,1.606,3.213c0,0.746,0,5.28,0,11.136c-0.763-1.056-2.059-1.738-4.098-1.738
	c-6.907,0-5.791,5-9.621,6.077c0-1.391,0-2.386,0-2.791c0-2.629-1.168-3.505-1.898-3.505c-1.752,0-9.931,3.505-11.83,4.528
	c-1.898,1.022-0.438,2.337,0.438,2.775c0.876,0.438,1.606,0.876,1.606,3.213s0,22.053,0,23.075c0,1.023-0.292,2.045-1.752,2.921
	c-1.46,0.876-0.146,3.037,1.46,3.037h12.268c1.606,0,2.921-2.162,1.46-3.037c-1.46-0.877-1.753-1.899-1.753-2.921
	c0,0,0-7.475,0-14.999c0.909-2.955,3.156-8.88,6.554-8.88c1.46,0,1.023,3.943,4.381,3.943c0.773,0,1.964-1.674,2.784-3.839
	c0,11.177,0,23.215,0,23.774c0,1.023-0.292,2.045-1.752,2.921c-1.461,0.876-0.146,3.037,1.46,3.037h12.268
	C208.901,179.184,210.215,177.023,208.755,176.147z M269.52,179.184h-11.04c-1.606,0-2.921-2.162-1.46-3.037
	c1.46-0.877,1.752-1.899,1.752-2.921c0-3.213-1.036-24.974-4.103-24.974c-1.3,0-2.456,1.342-2.456,2.244c0,8.971,0,22.73,0,22.73
	c0,1.023,0.292,2.045,1.753,2.921c1.46,0.876,0.146,3.037-1.46,3.037h-12.268c-0.621,0-1.198-0.324-1.588-0.771
	c-0.429,0.462-1.356,0.771-3.323,0.771c-4.235,0-5.549,0-6.426,0c-0.876,0-1.314-1.285-2.045-1.285s-1.752,1.285-4.089,1.285
	s-9.055,0-10.223,0s-4.674-3.037-4.674-9.026c0-5.988,2.979-10.836,9.055-13.874c1.753-0.877,6.426-1.023,6.426-3.652
	c0-3.213-1.314-6.864-3.651-6.864s-3.359,0.292-3.359,0.292s2.045,1.022,2.045,4.235s-1.898,3.797-4.381,3.797
	s-5.696-0.438-5.696-5.403c0-4.966,5.55-8.033,11.976-8.033s12.56-0.438,13.728,14.02c1.169,14.458,1.169,15.043,1.169,16.357
	c0,1.315,0.292,2.337,1.46,2.337c1.054,0,2.105,1.425,2.301,2.669c1.315-0.852,1.587-1.833,1.587-2.816c0-1.022,0-20.739,0-23.075
	s-0.73-2.774-1.606-3.213c-0.876-0.438-2.337-1.753-0.438-2.775c1.899-1.023,10.077-4.528,11.83-4.528
	c0.73,0,1.898,0.876,1.898,3.505c0,0.097,0,0.23,0,0.391c1.836-1.054,2.458-3.458,6.107-3.458c11.538,0,10.908,31.108,10.908,33.152
	c0,1.023,0.291,2.045,1.752,2.921C272.441,177.023,271.127,179.184,269.52,179.184z M223.935,159.497
	c-3.067,0-5.55,2.337-5.55,8.178c0,5.842,1.753,6.427,3.505,6.427c1.753,0,2.045-1.607,2.045-2.921
	C223.935,169.866,223.935,159.497,223.935,159.497z M143.025,159.205c0,20.009-5.988,20.885-11.538,20.885
	c-5.55,0-6.28-1.753-7.595-3.213c-1.315-1.46-2.336-1.898-2.774-1.168c-2.388,3.98-3.213,3.476-4.089,3.476
	c-0.645,0-1.684,0.25-2.189-1.943c-0.023,0.923-0.988,1.943-2.092,1.943h-11.041c-1.606,0-2.92-2.162-1.46-3.037
	c1.46-0.877,1.753-1.899,1.753-2.921c0-3.213-1.037-24.974-4.103-24.974c-0.974,0-2.089,0.712-2.089,1.492
	c0.002,0.088,0.003,23.482,0.003,23.482c0,1.023,0.292,2.045,1.753,2.921c1.46,0.876,0.146,3.037-1.461,3.037h-11.04
	c-1.606,0-2.921-2.162-1.46-3.037c1.46-0.877,1.753-1.899,1.753-2.921s0-19.716,0-22.053c0-2.628-1.041-3.505-2.355-3.505
	c-1.274,0-2.912,1.461-2.912,3.729c0,8.961,0,21.828,0,21.828c0,1.023,0.292,2.045,1.752,2.921s0.146,3.037-1.46,3.037H68.112
	c-1.607,0-2.921-2.162-1.461-3.037c1.461-0.877,1.753-1.899,1.753-2.921s0-20.739,0-23.075s-0.73-2.774-1.606-3.213
	c-0.877-0.438-2.337-1.753-0.438-2.775c1.899-1.023,10.077-4.528,11.83-4.528c0.73,0,1.899,0.876,1.899,3.505
	c0,0.132,0,0.327,0,0.575c2.907-0.759,2.185-4.08,7.877-4.08c3.434,0,5.438,1.92,6.559,4.263c2.632-0.653,2.831-3.825,7.023-3.825
	c11.538,0,10.908,31.108,10.908,33.152c0,1.023,0.292,2.045,1.752,2.921c0.262,0.156,0.432,0.354,0.53,0.574
	c-0.12-0.734-0.193-1.681-0.193-2.911c0-4.835,0-41.689,0-43.668c0-2.337,0.028-2.775-0.849-3.213
	c-0.876-0.438-2.337-2.483-0.438-3.506c1.899-1.022,9.319-4.527,11.072-4.527c0.73,0,1.899,0.876,1.899,3.505
	c0,0.872,0,8.993,0,18.699c2.319-0.625,1.772-2.05,4.966-2.05C134.408,139.051,143.025,143.432,143.025,159.205z M133.532,158.329
	c0-4.381-1.169-13.144-3.797-13.144c-2.629,0-3.651,10.077-3.651,13.144s0.438,11.976,3.359,11.976S133.532,162.71,133.532,158.329z
	 M299.021,179.184c0,0-20.183,0-21.633,0c-1.899,0-3.213,0.467-4.382-2.308c-1.168-2.774-3.067-7.302-3.067-13.582
	c0-15.043,7.741-22.199,11.538-22.199c2.828,0,4.763,1.457,5.568,2.202c0-6.012,0-10.748,0-11.526c0-2.337-0.73-2.775-1.607-3.213
	c-0.876-0.438-2.336-1.753-0.438-2.775c0.58-0.313,2.095-0.147,3.487-0.753c3.16-1.375,7.126-3.775,8.343-3.775
	c0.73,0,1.898,0.876,1.898,3.505c0,2.628,0,48.464,0,48.464c0,1.023,0.292,2.045,1.752,2.921
	C301.943,177.023,300.628,179.184,299.021,179.184z M287.612,160.812c0-8.325-2.775-12.998-4.381-12.998
	c-1.023,0-3.213,4.673-3.213,13.144s2.921,11.83,4.235,11.83C285.567,172.788,287.612,169.136,287.612,160.812z M271.586,127.139
	c0-1.711,1.388-2.973,3.028-2.973c1.624,0,3.012,1.262,3.012,2.973c0,1.727-1.387,2.989-3.012,2.989
	C272.973,130.128,271.586,128.866,271.586,127.139z M272.185,127.139c0,1.435,1.065,2.492,2.429,2.492
	c1.348,0,2.413-1.057,2.413-2.492c0-1.411-1.064-2.476-2.413-2.476C273.249,124.663,272.185,125.728,272.185,127.139z
	 M273.983,128.866h-0.52v-3.438h1.309c0.812,0,1.214,0.3,1.214,0.977c0,0.616-0.386,0.884-0.891,0.947l0.977,1.514h-0.584
	l-0.907-1.49h-0.599v1.49H273.983z M273.983,126.934h0.623c0.442,0,0.836-0.032,0.836-0.56c0-0.426-0.386-0.504-0.749-0.504h-0.71
	V126.934z"/>
</svg>
